<svg xmlns="http://www.w3.org/2000/svg" fill="white" data-encore-id="icon" role="img" aria-hidden="true" viewBox="0 0 16 16" class="Svg-sc-ytk21e-0 dYnaPI"><path d="M1.665 15.226a.67.67 0 0 0 .915-.245l7.675-13.292a.67.67 0 1 0-1.161-.67L7.95 3H5a5 5 0 0 0-2.453 9.358L1.42 14.31a.67.67 0 0 0 .245.915zm1.632-4.167A3.5 3.5 0 0 1 5 4.5h2.084l-3.787 6.559zm2.368 4.167a.67.67 0 0 0 .915-.245L7.724 13H11a5 5 0 0 0 2.203-9.49l1.052-1.82a.67.67 0 1 0-1.161-.671L5.42 14.311a.67.67 0 0 0 .245.915zM12.45 4.814A3.501 3.501 0 0 1 11 11.5H8.59l3.86-6.686z"></path></svg>